<svg width="32" height="32" viewBox="0 0 32 32" fill="none" xmlns="http://www.w3.org/2000/svg">
<path d="M25.3333 5.33366H19.76C19.2 3.78699 17.7333 2.66699 16 2.66699C14.2667 2.66699 12.8 3.78699 12.24 5.33366H6.66667C5.2 5.33366 4 6.53366 4 8.00033V26.667C4 28.1337 5.2 29.3337 6.66667 29.3337H25.3333C26.8 29.3337 28 28.1337 28 26.667V8.00033C28 6.53366 26.8 5.33366 25.3333 5.33366ZM16 5.33366C16.7333 5.33366 17.3333 5.93366 17.3333 6.66699C17.3333 7.40033 16.7333 8.00033 16 8.00033C15.2667 8.00033 14.6667 7.40033 14.6667 6.66699C14.6667 5.93366 15.2667 5.33366 16 5.33366ZM18.6667 24.0003H9.33333V21.3337H18.6667V24.0003ZM22.6667 18.667H9.33333V16.0003H22.6667V18.667ZM22.6667 13.3337H9.33333V10.667H22.6667V13.3337Z" fill="#4DB663"/>
</svg>
