<svg width="18" height="18" viewBox="0 0 18 18" fill="none" xmlns="http://www.w3.org/2000/svg">
<path d="M5.66797 0.666992C6.12821 0.666992 6.5013 1.04009 6.5013 1.50033V2.33366H11.5013V1.50033C11.5013 1.04009 11.8744 0.666992 12.3346 0.666992C12.7949 0.666992 13.168 1.04009 13.168 1.50033V2.33366H16.5013C16.7223 2.33366 16.9343 2.42146 17.0906 2.57774C17.2468 2.73402 17.3346 2.94598 17.3346 3.16699V16.5003C17.3346 16.7213 17.2468 16.9333 17.0906 17.0896C16.9343 17.2459 16.7223 17.3337 16.5013 17.3337H1.5013C1.28029 17.3337 1.06833 17.2459 0.912046 17.0896C0.755766 16.9333 0.667969 16.7213 0.667969 16.5003V3.16699C0.667969 2.94598 0.755766 2.73402 0.912046 2.57774C1.06833 2.42146 1.28029 2.33366 1.5013 2.33366H4.83464V1.50033C4.83464 1.04009 5.20773 0.666992 5.66797 0.666992ZM15.668 7.50033C15.668 6.94804 15.2203 6.50033 14.668 6.50033H3.33463C2.78235 6.50033 2.33464 6.94804 2.33464 7.50033V14.667C2.33464 15.2193 2.78235 15.667 3.33464 15.667H14.668C15.2203 15.667 15.668 15.2193 15.668 14.667V7.50033ZM11.5313 8.28033L12.7096 9.45866L8.58464 13.5837L5.63797 10.637L6.81797 9.45866L8.58547 11.227L11.5313 8.28033Z" fill="#7A7A7A"/>
</svg>
