<svg width="32" height="32" viewBox="0 0 32 32" fill="none" xmlns="http://www.w3.org/2000/svg">
<path fill-rule="evenodd" clip-rule="evenodd" d="M16 30C19.713 30 23.274 28.525 25.8995 25.8995C28.525 23.274 30 19.713 30 16C30 12.287 28.525 8.72601 25.8995 6.10051C23.274 3.475 19.713 2 16 2C12.287 2 8.72601 3.475 6.10051 6.10051C3.475 8.72601 2 12.287 2 16C2 19.713 3.475 23.274 6.10051 25.8995C8.72601 28.525 12.287 30 16 30ZM22.4872 13.7372C22.806 13.4072 22.9824 12.9651 22.9784 12.5063C22.9744 12.0475 22.7904 11.6085 22.4659 11.2841C22.1415 10.9596 21.7025 10.7756 21.2437 10.7716C20.7849 10.7676 20.3428 10.944 20.0128 11.2628L14.25 17.0255L11.9872 14.7628C11.6572 14.444 11.2151 14.2676 10.7563 14.2716C10.2975 14.2756 9.85853 14.4596 9.53407 14.7841C9.2096 15.1085 9.02556 15.5475 9.02157 16.0063C9.01758 16.4651 9.19397 16.9072 9.51275 17.2372L13.0128 20.7372C13.3409 21.0653 13.786 21.2496 14.25 21.2496C14.714 21.2496 15.1591 21.0653 15.4872 20.7372L22.4872 13.7372Z" fill="#4DB663"/>
</svg>
