<svg width="32" height="32" viewBox="0 0 32 32" fill="none" xmlns="http://www.w3.org/2000/svg">
<path fill-rule="evenodd" clip-rule="evenodd" d="M15.0581 4.05889C12.8595 4.53919 11.3554 6.45171 11.4738 8.61633C11.5532 10.0699 12.2939 11.3131 13.5613 12.1204C14.411 12.6616 15.5 12.912 16.4848 12.7926C18.7448 12.5186 20.4014 10.8045 20.521 8.61633C20.6011 7.15092 19.9143 5.7188 18.7156 4.85168C18.3125 4.56017 17.6407 4.2374 17.1716 4.10991C16.7316 3.99035 15.507 3.96077 15.0581 4.05889ZM6.08789 7.319C5.66785 7.43382 5.41198 7.55795 5.06458 7.81534C3.70552 8.82249 3.56927 10.798 4.77757 11.9769C5.34743 12.5329 6.0201 12.8074 6.81279 12.8074C8.15599 12.8074 9.29441 11.9236 9.6046 10.6401C9.92976 9.29445 9.12272 7.85832 7.77822 7.39003C7.36355 7.24557 6.49055 7.20891 6.08789 7.319ZM24.4571 7.319C24.0371 7.43382 23.7812 7.55795 23.4338 7.81534C22.0747 8.82249 21.9385 10.798 23.1468 11.9769C23.7166 12.5329 24.3893 12.8074 25.182 12.8074C26.5252 12.8074 27.6636 11.9236 27.9738 10.6401C28.299 9.29445 27.4919 7.85832 26.1474 7.39003C25.7328 7.24557 24.8598 7.20891 24.4571 7.319ZM14.8754 14.5525C13.3234 14.7724 12.4245 15.1043 11.457 15.8145C10.3966 16.5928 9.69952 17.528 9.31727 18.6849C8.95995 19.7664 8.8668 20.9452 8.93391 23.5364L8.98072 25.3452L9.12475 25.6324C9.31648 26.0147 9.63502 26.3171 10.0483 26.5091L10.3875 26.6667H15.7365C21.3935 26.6667 21.5604 26.6605 22.1096 26.43C22.4175 26.3007 22.6947 26.0121 22.8788 25.629L23.0163 25.3428L23.0317 22.8426C23.0484 20.1072 23.0222 19.7363 22.7527 18.9017C22.0613 16.76 20.1232 15.0311 17.9804 14.6445C17.6 14.5758 15.2103 14.5051 14.8754 14.5525ZM5.32551 14.6557C4.18537 14.9233 3.19061 15.832 2.8155 16.9488L2.66406 17.3996V20.6838V23.968L2.78179 24.183C2.96648 24.5202 3.19421 24.7412 3.51562 24.8952L3.81214 25.0373L5.47591 25.0538C6.39092 25.063 7.19552 25.0567 7.26383 25.04L7.38803 25.0096L7.37832 22.834C7.3682 20.5711 7.40149 20.0003 7.59771 19.0697C7.87518 17.7541 8.52243 16.5085 9.40948 15.5833L9.64389 15.3387L9.51995 15.236C9.29196 15.0471 8.56496 14.7254 8.1957 14.65C7.69629 14.5481 5.76773 14.5519 5.32551 14.6557ZM23.7768 14.6528C23.3847 14.7357 22.7755 15.0071 22.5341 15.2062L22.3649 15.3457L22.6769 15.6857C23.5661 16.6547 24.1293 17.7561 24.3978 19.0512C24.5809 19.9342 24.6179 20.5855 24.6126 22.8341L24.6074 25.0098L24.7315 25.0401C24.7997 25.0569 25.5924 25.0631 26.493 25.0539C28.0358 25.0383 28.1444 25.031 28.3717 24.9285C28.7025 24.7792 29.0246 24.4831 29.1913 24.1749L29.3307 23.9171V20.6584V17.3996L29.178 16.9449C28.8009 15.8224 27.7988 14.916 26.6432 14.6526C26.1912 14.5495 24.2642 14.5497 23.7768 14.6528Z" fill="#4DB663"/>
</svg>
