<svg width="32" height="32" viewBox="0 0 32 32" fill="none" xmlns="http://www.w3.org/2000/svg">
<path fill-rule="evenodd" clip-rule="evenodd" d="M15.571 4.02748C15.4148 4.05493 15.1512 4.1457 14.9853 4.22917C14.8053 4.31964 11.9427 6.67969 7.88937 10.0793C0.73216 16.0822 0.929671 15.9034 1.02649 16.2911C1.04547 16.3674 1.36552 16.7921 1.73764 17.2351C2.30212 17.907 2.44726 18.0467 2.6132 18.078C2.72268 18.0986 2.86642 18.0982 2.93267 18.0771C2.99891 18.0559 5.95989 15.602 9.51263 12.6239C13.0654 9.6458 15.9854 7.20917 16.0015 7.20917C16.0176 7.20917 18.9376 9.6458 22.4904 12.6239C26.0431 15.602 29.0041 18.0559 29.0704 18.0771C29.1366 18.0982 29.2803 18.0986 29.3898 18.078C29.5558 18.0467 29.7009 17.907 30.2654 17.2351C30.6375 16.7921 30.9576 16.3674 30.9765 16.2911C31.0673 15.9274 30.9975 15.8541 28.828 14.0377L26.7498 12.2977L26.7205 8.34016L26.6913 4.38261C26.6913 4.20329 26.5459 4.05605 26.3666 4.05605L24.4789 4.03732C23.2496 4.02513 22.4674 4.07906 22.3286 4.12023C22.3286 4.12023 21.9795 4.20943 21.9622 6.35538L21.9468 8.27837L19.5588 6.27409C16.9977 4.12461 16.9214 4.07301 16.2065 4.00905C16.0132 3.99173 15.7273 4.00003 15.571 4.02748ZM10.6262 13.2854L5.28248 17.7149L5.28283 22.3126C5.28301 25.4704 5.30327 26.9841 5.3475 27.1459C5.43612 27.4703 5.83126 27.844 6.1786 27.932C6.36715 27.9797 7.5135 28 10.0236 28H13.6V24.4069V20.8139H16.0015H18.403V24.4069V28H21.9794C24.363 28 25.6402 27.9786 25.8089 27.9359C26.135 27.8533 26.4724 27.5718 26.6097 27.2679C26.7121 27.0412 26.718 26.7739 26.7193 22.3714L26.7205 17.7148L21.3979 13.3029C18.4705 10.8765 16.0516 8.88324 16.0227 8.87353C15.9937 8.86381 13.5653 10.8491 10.6262 13.2854Z" fill="#4DB663"/>
</svg>
